<svg xmlns="http://www.w3.org/2000/svg" viewBox="0 0 256 256"><defs><linearGradient id="sq" x1="0%" y1="0%" x2="0%" y2="100%"><stop offset="0%" stop-color="#336791"/><stop offset="100%" stop-color="#1e3e5a"/></linearGradient></defs><ellipse cx="128" cy="60" rx="88" ry="28" fill="url(#sq)"/><path fill="url(#sq)" d="M40 60v40c0 15.5 39.4 28 88 28s88-12.5 88-28V60c0 15.5-39.4 28-88 28S40 75.5 40 60z"/><path fill="url(#sq)" d="M40 120v40c0 15.5 39.4 28 88 28s88-12.5 88-28v-40c0 15.5-39.4 28-88 28s-88-12.5-88-28z"/><path fill="url(#sq)" d="M40 180v16c0 15.5 39.4 28 88 28s88-12.5 88-28v-16c0 15.5-39.4 28-88 28s-88-12.5-88-28z"/><text x="128" y="140" font-family="Arial,sans-serif" font-weight="bold" font-size="32" fill="#FFF" text-anchor="middle">SQL</text></svg>
